<svg width="120" height="120" viewBox="0 0 120 120" fill="none" xmlns="http://www.w3.org/2000/svg">
<path d="M120 60C120 93.1371 93.1371 120 60 120C26.8629 120 0 93.1371 0 60C0 26.8629 26.8629 0 60 0C93.1371 0 120 26.8629 120 60ZM9 60C9 88.1665 31.8335 111 60 111C88.1665 111 111 88.1665 111 60C111 31.8335 88.1665 9 60 9C31.8335 9 9 31.8335 9 60Z" fill="#FF8A65"/>
<path d="M120 60C120 69.4686 117.759 78.8028 113.46 87.2394C109.162 95.676 102.927 102.976 95.2671 108.541C87.6068 114.107 78.7381 117.78 69.3861 119.261C60.034 120.743 50.4642 119.989 41.459 117.063C32.4538 114.137 24.2689 109.122 17.5736 102.426C10.8783 95.7311 5.86257 87.5462 2.93661 78.541C0.0106425 69.5358 -0.74252 59.966 0.7387 50.6139C2.21992 41.2619 5.89347 32.3932 11.459 24.7329L18.7401 30.0229C14.0094 36.5342 10.8869 44.0726 9.6279 52.0218C8.36886 59.9711 9.00905 68.1054 11.4961 75.7599C13.9832 83.4143 18.2465 90.3714 23.9376 96.0624C29.6286 101.753 36.5857 106.017 44.2401 108.504C51.8945 110.991 60.0289 111.631 67.9782 110.372C75.9274 109.113 83.4658 105.991 89.977 101.26C96.4883 96.5292 101.787 90.3246 105.441 83.1535C109.095 75.9824 111 68.0483 111 60H120Z" fill="#F5C324"/>
</svg>
