<svg width="344" height="104" viewBox="0 0 344 104" fill="none" xmlns="http://www.w3.org/2000/svg">
<g clip-path="url(#clip0_34_3281)">
<g opacity="0.2" clip-path="url(#clip1_34_3281)">
<path d="M328.464 24.5361C336.232 24.5361 336.232 11.419 344 11.419V104H-199.758V95.2748C-191.343 95.2748 -191.99 100.1 -184.222 100.1C-176.454 100.1 -176.454 86.3973 -168.686 86.3973C-160.918 86.3973 -162.213 90.6135 -153.15 90.6135C-144.088 90.6135 -146.677 98.5072 -137.614 98.5072C-128.552 98.5072 -130.494 95.509 -122.078 95.509C-113.663 95.509 -115.282 81.2208 -106.543 81.2208C-97.8036 81.2208 -100.069 85.882 -91.0066 85.882C-81.944 85.882 -83.5623 92.3 -75.4706 92.3C-67.379 92.3 -68.6737 70.9847 -59.9347 70.9847C-51.1957 70.9847 -52.1667 78.3631 -44.3987 78.3631C-36.6308 78.3631 -37.9254 68.0334 -28.8628 68.0334C-19.8002 68.0334 -21.7422 74.6388 -13.3268 74.6388C-4.91153 74.6388 -6.20621 47.6316 2.20911 47.6316C10.6244 47.6316 9.00607 55.1505 17.7451 55.1505C26.484 55.1505 24.2184 60.1162 33.281 60.1162C42.3436 60.1162 40.078 47.2334 48.817 47.2334C57.5559 47.2334 55.2903 53.5577 64.3529 53.5577C73.4155 53.5577 71.7972 43.1343 79.8889 43.1343C87.9805 43.1343 87.0095 25.7073 95.4248 25.7073C103.84 25.7073 102.545 54.8694 110.961 54.8694C119.376 54.8694 118.405 34.4442 126.497 34.4442C134.588 34.4442 132.97 43.3919 142.033 43.3919C151.095 43.3919 149.153 51.4262 157.569 51.4262C165.984 51.4262 165.013 38.1217 173.105 38.1217C181.196 38.1217 180.549 50.7703 188.641 50.7703C196.732 50.7703 195.761 45.1487 204.176 45.1487C212.592 45.1487 211.297 33.5541 219.712 33.5541C228.128 33.5541 226.833 38.1919 235.248 38.1919C243.664 38.1919 243.016 21.2568 250.784 21.2568C258.552 21.2568 257.258 44.4694 266.32 44.4694C275.383 44.4694 273.117 28.7054 281.856 28.7054C290.595 28.7054 289.301 35.1937 297.392 35.1937C305.484 35.1937 304.836 19.0316 312.928 19.0316C321.02 19.0316 320.696 24.5361 328.464 24.5361Z" fill="#F5C324"/>
</g>
<g clip-path="url(#clip2_34_3281)">
<path d="M344 11.4176C336.232 11.4176 336.232 24.5347 328.464 24.5347C320.696 24.5347 321.02 19.0302 312.928 19.0302C304.836 19.0302 305.484 35.1924 297.392 35.1924C289.3 35.1924 290.595 28.7041 281.856 28.7041C273.117 28.7041 275.383 44.468 266.32 44.468C257.258 44.468 258.552 21.2554 250.784 21.2554C243.016 21.2554 243.664 38.1905 235.248 38.1905C226.833 38.1905 228.128 33.5527 219.712 33.5527C211.297 33.5527 212.592 45.1473 204.176 45.1473C195.761 45.1473 196.732 50.7689 188.64 50.7689C180.549 50.7689 181.196 38.1203 173.105 38.1203C165.013 38.1203 165.984 51.4248 157.569 51.4248C149.153 51.4248 151.095 43.3905 142.033 43.3905C132.97 43.3905 134.588 34.4428 126.497 34.4428C118.405 34.4428 119.376 54.868 110.961 54.868C102.545 54.868 103.84 25.7059 95.4248 25.7059C87.0095 25.7059 87.9805 43.1329 79.8888 43.1329C71.7972 43.1329 73.4155 53.5563 64.3529 53.5563C55.2902 53.5563 57.5559 47.232 48.8169 47.232C40.078 47.232 42.3436 60.1149 33.281 60.1149C24.2183 60.1149 26.484 55.1491 17.745 55.1491C9.00606 55.1491 10.6244 47.6302 2.20908 47.6302C-6.20622 47.6302 -4.91156 74.6374 -13.3269 74.6374C-21.7422 74.6374 -19.8002 68.032 -28.8628 68.032C-37.9255 68.032 -36.6308 78.3617 -44.3988 78.3617C-52.1667 78.3617 -51.1957 70.9833 -59.9347 70.9833C-68.6737 70.9833 -67.379 92.2987 -75.4707 92.2987C-83.5623 92.2987 -81.944 85.8806 -91.0066 85.8806C-100.069 85.8806 -97.8036 81.2194 -106.543 81.2194C-115.282 81.2194 -113.663 95.5077 -122.079 95.5077C-130.494 95.5077 -128.552 98.5059 -137.614 98.5059C-146.677 98.5059 -144.088 90.6122 -153.15 90.6122C-162.213 90.6122 -160.918 86.396 -168.686 86.396C-176.454 86.396 -176.454 100.099 -184.222 100.099C-191.99 100.099 -191.343 95.2734 -199.758 95.2734" stroke="#F5C324" stroke-width="0.647331"/>
</g>
<rect x="0.323666" y="-0.323666" width="5.50889" height="5.50889" rx="2.75444" transform="matrix(-1 0 0 1 331.69 21.7749)" fill="#F5C324" stroke="#F5C324" stroke-width="0.647331"/>
<rect x="0.323666" y="-0.323666" width="5.50889" height="5.50889" rx="2.75444" transform="matrix(-1 0 0 1 316.154 16.25)" fill="#F5C324" stroke="#F5C324" stroke-width="0.647331"/>
<rect x="0.323666" y="-0.323666" width="5.50889" height="5.50889" rx="2.75444" transform="matrix(-1 0 0 1 300.618 32.4999)" fill="#F5C324" stroke="#F5C324" stroke-width="0.647331"/>
<rect x="0.323666" y="-0.323666" width="5.50889" height="5.50889" rx="2.75444" transform="matrix(-1 0 0 1 285.082 25.9999)" fill="#F5C324" stroke="#F5C324" stroke-width="0.647331"/>
<rect x="0.323666" y="-0.323666" width="5.50889" height="5.50889" rx="2.75444" transform="matrix(-1 0 0 1 347.226 8.44993)" fill="#F5C324" stroke="#F5C324" stroke-width="0.647331"/>
<rect x="0.323666" y="-0.323666" width="5.50889" height="5.50889" rx="2.75444" transform="matrix(-1 0 0 1 254.01 18.5249)" fill="#F5C324" stroke="#F5C324" stroke-width="0.647331"/>
<rect x="0.323666" y="-0.323666" width="5.50889" height="5.50889" rx="2.75444" transform="matrix(-1 0 0 1 238.474 35.7499)" fill="#F5C324" stroke="#F5C324" stroke-width="0.647331"/>
<rect x="0.323666" y="-0.323666" width="5.50889" height="5.50889" rx="2.75444" transform="matrix(-1 0 0 1 222.938 31.2)" fill="#F5C324" stroke="#F5C324" stroke-width="0.647331"/>
<rect x="0.323666" y="-0.323666" width="5.50889" height="5.50889" rx="2.75444" transform="matrix(-1 0 0 1 207.402 42.5749)" fill="#F5C324" stroke="#F5C324" stroke-width="0.647331"/>
<rect x="0.323666" y="-0.323666" width="5.50889" height="5.50889" rx="2.75444" transform="matrix(-1 0 0 1 269.546 41.9249)" fill="#F5C324" stroke="#F5C324" stroke-width="0.647331"/>
<rect x="0.323666" y="-0.323666" width="5.50889" height="5.50889" rx="2.75444" transform="matrix(-1 0 0 1 176.331 35.4249)" fill="#F5C324" stroke="#F5C324" stroke-width="0.647331"/>
<rect x="0.323666" y="-0.323666" width="5.50889" height="5.50889" rx="2.75444" transform="matrix(-1 0 0 1 160.795 48.7499)" fill="#F5C324" stroke="#F5C324" stroke-width="0.647331"/>
<rect x="0.323666" y="-0.323666" width="5.50889" height="5.50889" rx="2.75444" transform="matrix(-1 0 0 1 145.259 40.9499)" fill="#F5C324" stroke="#F5C324" stroke-width="0.647331"/>
<rect x="0.323666" y="-0.323666" width="5.50889" height="5.50889" rx="2.75444" transform="matrix(-1 0 0 1 129.723 31.8499)" fill="#F5C324" stroke="#F5C324" stroke-width="0.647331"/>
<rect x="0.323666" y="-0.323666" width="5.50889" height="5.50889" rx="2.75444" transform="matrix(-1 0 0 1 114.187 52.3249)" fill="#F5C324" stroke="#F5C324" stroke-width="0.647331"/>
<rect x="0.323666" y="-0.323666" width="5.50889" height="5.50889" rx="2.75444" transform="matrix(-1 0 0 1 191.867 48.4249)" fill="#F5C324" stroke="#F5C324" stroke-width="0.647331"/>
<rect x="0.323666" y="-0.323666" width="5.50889" height="5.50889" rx="2.75444" transform="matrix(-1 0 0 1 83.115 40.6249)" fill="#F5C324" stroke="#F5C324" stroke-width="0.647331"/>
<rect x="0.323666" y="-0.323666" width="5.50889" height="5.50889" rx="2.75444" transform="matrix(-1 0 0 1 67.579 51.0249)" fill="#F5C324" stroke="#F5C324" stroke-width="0.647331"/>
<rect x="0.323666" y="-0.323666" width="5.50889" height="5.50889" rx="2.75444" transform="matrix(-1 0 0 1 52.043 44.5249)" fill="#F5C324" stroke="#F5C324" stroke-width="0.647331"/>
<rect x="0.323666" y="-0.323666" width="5.50889" height="5.50889" rx="2.75444" transform="matrix(-1 0 0 1 36.5071 57.5249)" fill="#F5C324" stroke="#F5C324" stroke-width="0.647331"/>
<rect x="0.323666" y="-0.323666" width="5.50889" height="5.50889" rx="2.75444" transform="matrix(-1 0 0 1 98.6509 23.0749)" fill="#F5C324" stroke="#F5C324" stroke-width="0.647331"/>
<rect x="0.323666" y="-0.323666" width="5.50889" height="5.50889" rx="2.75444" transform="matrix(-1 0 0 1 5.43517 44.8499)" fill="#F5C324" stroke="#F5C324" stroke-width="0.647331"/>
<rect x="0.323666" y="-0.323666" width="5.50889" height="5.50889" rx="2.75444" transform="matrix(-1 0 0 1 20.9712 52.6499)" fill="#F5C324" stroke="#F5C324" stroke-width="0.647331"/>
</g>
<defs>
<clipPath id="clip0_34_3281">
<rect width="344" height="104" fill="white" transform="matrix(-1 0 0 1 344 0)"/>
</clipPath>
<clipPath id="clip1_34_3281">
<rect width="344.133" height="92.581" fill="white" transform="matrix(-1 0 0 1 344 11.419)"/>
</clipPath>
<clipPath id="clip2_34_3281">
<rect width="344.133" height="92.625" fill="white" transform="matrix(-1 0 0 1 344 11.375)"/>
</clipPath>
</defs>
</svg>
